/* XPM */
static char *bongocat_down[] = {
/* columns rows colors chars-per-pixel */
"33 20 126 2 ",
"   c None",
".  c gray6",
"X  c #141314",
"o  c #191819",
"O  c #1C1B1C",
"+  c #222122",
"@  c #222222",
"#  c gray15",
"$  c #2A292A",
"%  c #2A2A2A",
"&  c #2B2A2B",
"*  c #2C2B2C",
"=  c #2D2C2D",
"-  c #302F30",
";  c #343334",
":  c #363536",
">  c gray21",
",  c #3B3A3B",
"<  c #3C3B3C",
"1  c #3F3E3F",
"2  c #403F40",
"3  c #423F41",
"4  c #424142",
"5  c #434243",
"6  c #444344",
"7  c gray27",
"8  c #464546",
"9  c #474647",
"0  c #4B4A4B",
"q  c #4E4D4E",
"w  c #504F50",
"e  c #515051",
"r  c #525052",
"t  c #545354",
"y  c #585758",
"u  c #636263",
"i  c #676667",
"p  c #6C6B6C",
"a  c #6D6C6D",
"s  c #6E6C6E",
"d  c #727172",
"f  c #747374",
"g  c #757475",
"h  c #767576",
"j  c #787678",
"k  c #787778",
"l  c #7C7B7C",
"z  c #7E7D7E",
"x  c #7F7D7F",
"c  c #828082",
"v  c #838283",
"b  c gray52",
"n  c #898889",
"m  c #8D8C8D",
"M  c #8F8E8F",
"N  c #908E90",
"B  c #929092",
"V  c #939293",
"C  c #969496",
"Z  c #989798",
"A  c #999799",
"S  c #9B9A9B",
"D  c #9F9D9F",
"F  c #9F9E9F",
"G  c #A09EA0",
"H  c #A2A1A2",
"J  c #A9A7A9",
"K  c #A9A8A9",
"L  c #ABA9AB",
"P  c #ADACAD",
"I  c #AEACAE",
"U  c #B1AFB1",
"Y  c #B3B2B3",
"T  c #B4B3B4",
"R  c #B6B4B6",
"E  c #B6B5B6",
"W  c #B7B5B7",
"Q  c #B8B7B8",
"!  c #BAB8BA",
"~  c #BFBDBF",
"^  c #C1BFC1",
"/  c #C2C0C2",
"(  c #C2C1C2",
")  c #C4C2C4",
"_  c gray77",
"`  c #C5C4C5",
"'  c #C6C4C6",
"]  c #C7C5C7",
"[  c #C8C5C7",
"{  c #C8C7C9",
"}  c #D2D1D2",
"|  c #D4D2D4",
" . c #D5D3D5",
".. c #D7D5D7",
"X. c #D7D6D7",
"o. c #D8D6D8",
"O. c #D8D7D8",
"+. c #DCDBDC",
"@. c #E0DEE0",
"#. c #E1E0E1",
"$. c #E3E1E3",
"%. c #E4E2E4",
"&. c #E5E3E5",
"*. c #E6E5E6",
"=. c #E7E5E7",
"-. c #E8E6E8",
";. c #E9E7E9",
":. c #EAE8EA",
">. c #ECEAEC",
",. c #EDEBED",
"<. c #EEECEE",
"1. c #F0EEF0",
"2. c #F2F0F2",
"3. c #F3F1F3",
"4. c #F4F2F4",
"5. c #F5F3F5",
"6. c #F6F4F6",
"7. c #F9F7F9",
"8. c #FAF8FA",
"9. c #FBF9FB",
"0. c #FCFAFC",
"q. c #FDFBFD",
"w. c #FEFCFE",
"e. c #FFFDFF",
"r. c #FFFEFF",
"t. c white",
/* pixels */
"                            $ o                                   ",
"                          5 ` z                                   ",
"                        6 ' t.;.e                                 ",
"                    i P $.r.e.t.} v q                             ",
"                w R 6.t.t.e.e.e.t.t.<.E p -                       ",
"              x *.t.e.e.e.e.e.e.e.e.r.t.8.O.F y                   ",
"          - H 8.t.e.e.e.e.e.e.e.e.e.e.e.e.t.t.2.K 8       @ :     ",
"        > W r.e.e.e.t.e.e.e.e.e.e.e.e.e.e.e.e.r.t.&.C w h ] U     ",
"      < ( t.e.e.r.3.' 3.r.e.e.e.e.e.e.e.e.e.e.e.e.r.t.3.0.t.W     ",
"    3 [ t.e.e.e.t.! O ^ 5.r.e.e.e.e.e.e.e.e.e.e.e.e.e.e.e.t.N     ",
"  - ~ t.e.e.e.e.r.&.J ;.N n B 2.q.e.e.e.r.e.e.e.e.e.e.e.r.1.r     ",
"  D r.e.e.e.e.e.e.r.t.t.@.Q c j ..t.e.0.:.9.e.e.e.e.e.e.t.X.=     ",
"t <.r.e.e.t.t.q.r.t.t.r.t.t.8.;.7.e.t.) 1 +.t.e.e.e.e.e.t.T       ",
"a 8.t.t.5.| L g v U } >.q.t.t.t.e.e.t.o.M ,.r.e.e.e.e.e.t.o.,     ",
"$ l Z V u *         & 0 d G { -.9.t.t.t.t.w.e.e.e.e.e.e.e.t.D     ",
"                            + 8 s A / %.T  .t.e.e.e.e.e.e.r.-.6   ",
"                                      ; k 4.r.e.e.e.t.t.t.e.t.m   ",
"                                        ' t.r.t.t.9.#.^ | t.t.} % ",
"                                        S &.=.o.I f 2 X - b Y _ 7 ",
"                                          4 9 :               # . "
};
