/* XPM */
static char *bongocat_up[] = {
/* columns rows colors chars-per-pixel */
"33 20 166 2 ",
"   c None",
".  c #181818",
"X  c #1B1B1B",
"o  c #242324",
"O  c gray15",
"+  c #2A2A2A",
"@  c #2D2C2D",
"#  c #2E2D2E",
"$  c #313031",
"%  c #333233",
"&  c #343434",
"*  c #353535",
"=  c #363536",
"-  c #373637",
";  c #393839",
":  c #3C3B3C",
">  c #3F3E3F",
",  c #3E3F3F",
"<  c #414041",
"1  c #444344",
"2  c #454445",
"3  c #474647",
"4  c #484748",
"5  c #4A494A",
"6  c #4B4A4B",
"7  c #4D4C4D",
"8  c #515051",
"9  c #525152",
"0  c #565556",
"q  c #565656",
"w  c #585556",
"e  c #5D5C5D",
"r  c #5F5D5F",
"t  c #605F60",
"y  c #646061",
"u  c #666566",
"i  c #676667",
"p  c #6A696A",
"a  c #6F6C6D",
"s  c #6E6D6E",
"d  c #6F6E6F",
"f  c #706E70",
"g  c #707071",
"h  c #727172",
"j  c #757475",
"k  c #777879",
"l  c #7E7D7E",
"z  c #7F7D7F",
"x  c #7F7E7F",
"c  c #847F81",
"v  c #868586",
"b  c #878587",
"n  c #8B8183",
"m  c #888788",
"M  c #8B8B8C",
"N  c #8D8B8C",
"B  c #908E90",
"V  c #908F90",
"C  c #919091",
"Z  c #929092",
"A  c #939193",
"S  c #939393",
"D  c #959495",
"F  c #969596",
"G  c #969697",
"H  c #9A9597",
"J  c #999799",
"K  c #9B999B",
"L  c #9B9A9C",
"P  c #9E9D9F",
"I  c #A09EA0",
"U  c #A2A1A2",
"Y  c #A4A2A4",
"T  c #A4A3A4",
"R  c #A5A4A5",
"E  c #A9A8A9",
"W  c #ADABAD",
"Q  c #B8A4A7",
"!  c #B0AEB0",
"~  c #B0AFB1",
"^  c #B2B0B2",
"/  c #B4B2B4",
"(  c #B6B4B6",
")  c #B7B6B7",
"_  c #B9B8B9",
"`  c #BDBBBD",
"'  c #BEBDBE",
"]  c #BEBDBF",
"[  c #BFBDBF",
"{  c #BFBEBF",
"}  c gray75",
"|  c #C1B7B9",
" . c #D4BCBF",
".. c #FCB0B6",
"X. c #FCB1B7",
"o. c #C1C0C1",
"O. c #C2C0C2",
"+. c #C3C1C3",
"@. c #C9C7C9",
"#. c #CAC8CA",
"$. c #CBC9CB",
"%. c #CDCBCD",
"&. c #CDCCCD",
"*. c #D8C9CB",
"=. c #D0CED0",
"-. c #D2D0D2",
";. c #D3D2D3",
":. c #D4D2D4",
">. c #D6D5D6",
",. c #D8D6D8",
"<. c #D8D8D8",
"1. c #DAD9DA",
"2. c #DBDADB",
"3. c #DCDBDD",
"4. c #DEDCDE",
"5. c #DFDDDF",
"6. c #F6D1D5",
"7. c #FCD1D5",
"8. c #FFD2D6",
"9. c #FDD4D8",
"0. c #FDD5D8",
"q. c #FED5D9",
"w. c #FFD8DB",
"e. c #FDDBDF",
"r. c #E0DEE0",
"t. c #E0DFE0",
"y. c #FBDFE2",
"u. c #E2E0E2",
"i. c #E3E1E3",
"p. c #E6E4E6",
"a. c #E8E6E8",
"s. c #E8E8E9",
"d. c #E9E8E9",
"f. c #EAE8EA",
"g. c #ECEAEC",
"h. c #EEECEE",
"j. c #EFEDEF",
"k. c #FFE1E5",
"l. c #F9E4E7",
"z. c #F0E7E9",
"x. c #FFE5E8",
"c. c #FEE7EA",
"v. c #FFE9EC",
"b. c #FFEAED",
"n. c #F0EEF0",
"m. c #F1EFF1",
"M. c #F4F2F4",
"N. c #F4F3F5",
"B. c #F5F3F5",
"V. c #F6F4F6",
"C. c #F7F5F7",
"Z. c #FEF3F5",
"A. c #F8F6F8",
"S. c #F9F7F9",
"D. c #FEF6F8",
"F. c #FAF8FA",
"G. c #FBFAFB",
"H. c #FBFAFC",
"J. c #FCFAFC",
"K. c #FDFBFD",
"L. c #FFFBFD",
"P. c #FFFCFD",
"I. c #FEFCFE",
"U. c #FFFDFF",
"Y. c #FFFEFF",
"T. c white",
/* pixels */
"                            @                                     ",
"                          9 $.f                                   ",
"                        8 :.T.4.1                                 ",
"                    h / a.Y.U.Y.@.l 5                             ",
"                t O.F.T.Y.U.U.U.T.U.d.! i #                       ",
"            O Z j.T.U.U.U.U.U.U.U.U.Y.T.A.:.L 0                   ",
"  w H k X : ( I.Y.U.U.U.U.U.U.U.U.U.U.U.U.T.T.j.R 2         =     ",
", *.k.y.n G T.U.U.Y.T.U.U.U.U.U.U.U.U.U.U.U.U.Y.T.u.A 7 f ' )     ",
"y 6.9.q.z.o.J.U.Y.h.&.S.Y.U.U.U.U.U.U.U.U.U.U.U.U.T.T.n.F.T.+.    ",
"a l.X.0.T.U.U.U.T.K o ,.C.T.Y.U.U.U.U.U.U.U.U.T.T.Y.U.Y.U.T.P     ",
"p H.b.Z.U.U.U.U.T.:.Y a.b C U S.I.U.U.U.Y.Y.V.O.` p.Y.U.U.V.t     ",
"< [ s.G.T.T.T.U.U.T.T.U.-.W j z t.T.U.K.j.m.v c A g =.T.T.r.;     ",
"    3 s J o.i.A.T.T.T.U.T.T.B.i.S.U.T.[ 6 I N e.v. .B M.T.{       ",
"            > i V _ 3.B.Y.T.T.T.U.U.T.%.m M Q w.7.x.#.5.T.1.>     ",
"                    ; r m ^ >.m.U.T.T.T.T.D | 8...D.Y.I.U.T.T     ",
"                            $ 0 x E =.f.K.K ] L.c.P.U.U.U.Y.g.7   ",
"                                    + 4 i 5 d 2.N.Y.T.T.U.U.T.F   ",
"                                              * e v ~ ,.V.T.T.<.% ",
"                                                      - u S } ;.q ",
"                                                              & . "
};
